PathFileType	4	(X/Y/Z)	C:/Users/beibeiliu/ov580/test_trc/User1\sequence.9_training_dense_left.trc
DataRate	CameraRate	NumFrames	NumMarkers	Units	OrigDataRate	OrigDataStartFrame	OrigNumFrames
120	120	16	19	mm	120	158	314
Frame#	Time	ThumbCMC			ThumbMCP			ThumbIP			ThumbTip			IndexMCP			IndexPIP			IndexTip			MiddleMCP			MiddlePIP			MiddleTip			RingMCP			RingPIP			RingTip			PinkyMCP			PinkyPIP			PinkyTip			BackHand1			BackHand2			BackHand3	
		X0	Y0	Z0	X1	Y1	Z1	X2	Y2	Z2	X3	Y3	Z3	X4	Y4	Z4	X5	Y5	Z5	X6	Y6	Z6	X7	Y7	Z7	X8	Y8	Z8	X9	Y9	Z9	X10	Y10	Z10	X11	Y11	Z11	X12	Y12	Z12	X13	Y13	Z13	X14	Y14	Z14	X15	Y15	Z15	X16	Y16	Z16	X17	Y17	Z17	X18	Y18	Z18	
157	1.30833	-194.77	166.935	1.20613	-171.992	173.498	-10.7713	-148.686	175.946	-31.8221	-132.226	180.181	-42.0715	-143.694	98.6034	-41.4094	-124.477	80.5123	-39.6377	-101.888	60.7374	-32.4899	-161.673	70.2395	-36.7011	-133.862	54.6165	-33.3963	-109.508	32.957	-20.3758	-178.228	53.0236	-23.0426	-153.768	37.3322	-21.2708	-131.513	21.2629	-8.99692	-200.229	47.1012	-1.63058	-190.052	32.6401	0.0279224	-178.418	10.9439	-2.47109	-221.803	95.5232	-14.5569	-242.897	119.775	2.89085	-209.753	137.444	-15.3267	
158	1.31667	-201.846	163.343	-0.235417	-180.323	177.383	-16.9877	-161.21	178.716	-31.7898	-145.491	188.108	-43.6773	-144.375	103.473	-44.5274	-121.462	89.5855	-44.0936	-100.176	72.8243	-38.0451	-152.011	76.8892	-40.5349	-131.146	66.3248	-37.6599	-104.758	48.6421	-28.1923	-168.223	55.8799	-26.8976	-145.019	45.0246	-25.6742	-124.843	31.6821	-15.827	-191.845	46.5965	-2.62916	-181.728	34.4306	1.41272	-164.594	13.1794	-0.906015	-221.26	96.2804	-13.2652	-245.612	113.714	2.56548	-214.534	134.794	-17.6573	
159	1.325	-212.81	164.923	0.49004	-192.809	179.883	-20.6378	-173.422	183.903	-39.7076	-159.63	194.658	-50.6448	-149.056	116.795	-47.671	-120.084	102.166	-50.8718	-100.686	87.8377	-44.6242	-155.238	84.7292	-43.8298	-126.615	74.6621	-42.5953	-96.9241	64.7376	-37.4339	-165.813	63.0303	-28.5338	-138.223	55.5507	-30.6283	-113.733	45.7839	-22.6156	-184.384	50.8001	-6.62498	-168.734	39.3281	-3.66161	-152.674	22.391	-7.06911	-222.411	92.9574	-15.6669	-246.411	107.058	0.597981	-220.187	129.717	-18.2952	
160	1.33333	-222.978	161.814	0.598296	-207.256	179.514	-20.5966	-188.892	188.991	-41.5659	-175.277	200.542	-56.8623	-154.398	120.065	-53.536	-128.745	114.654	-57.6532	-99.5094	103.95	-54.716	-153.796	93.4518	-49.3744	-126.742	87.7432	-49.6556	-94.0811	77.7669	-46.8319	-165.247	71.3741	-33.1337	-134.081	59.9876	-33.8819	-111.844	56.5579	-29.3081	-181.247	54.3329	-6.02074	-159.826	40.6309	-3.35478	-138.127	29.0136	-8.51663	-219.276	93.1561	-20.4125	-246.301	105.983	1.26732	-227.558	131.603	-19.121	
161	1.34167	-231.284	158.976	-1.3318	-219.344	181.634	-22.7052	-201.591	188.795	-43.7745	-192.998	202.98	-58.1666	-162.195	130.077	-56.9296	-136.814	126.107	-63.3089	-105.219	115.741	-61.7867	-160.902	98.2306	-51.8118	-130.886	94.3339	-55.3379	-99.2572	90.0749	-55.7184	-162.022	73.6341	-36.5109	-135.469	72.6042	-39.2014	-107.004	66.5891	-35.1182	-177.828	58.7846	-8.6862	-157.084	51.4459	-8.20384	-135.227	38.1693	-7.6868	-219.883	89.5794	-20.0406	-246.822	95.5262	1.20667	-231.453	123.992	-19.7917	
162	1.35	-237.218	154.875	-3.51083	-228.209	178.127	-24.8303	-215.575	190.966	-43.4289	-207.527	202.067	-56.653	-168.36	133.715	-61.5848	-138.235	128.657	-68.9946	-110.019	125.423	-69.8599	-160.529	101.706	-57.2965	-131.337	104.365	-62.5534	-102.103	102.574	-63.6102	-159.043	80.6658	-40.0587	-134.848	77.3746	-41.3644	-108.817	76.1211	-40.1877	-170.883	60.2848	-11.6568	-152.3	54.8049	-8.05217	-126.38	45.9708	-11.66	-221.827	87.6474	-19.6669	-247.007	92.7173	0.037287	-237.044	126.028	-19.9923	
163	1.35833	-243.241	153.706	-6.30361	-237.979	174.771	-23.2115	-223.845	189.67	-48.7421	-220.223	203.766	-57.7333	-173.032	135.335	-64.2628	-144.886	133.991	-73.6104	-118.925	133.119	-75.7616	-163.937	106.933	-60.9201	-137.681	106.794	-64.896	-106.952	111.354	-68.9476	-163.12	83.329	-41.9042	-136.944	85.1223	-46.6413	-107.837	88.6032	-46.5765	-169.488	66.9456	-15.9563	-149.242	62.6313	-14.5924	-127.826	56.3276	-16.3515	-223.278	85.3451	-21.3327	-248.882	92.4581	0.814882	-240.31	123.498	-19.5371	
164	1.36667	-246.923	150.109	-7.04131	-244.719	173.255	-24.2197	-231.358	186.281	-47.0785	-231.88	203.617	-59.5252	-177.329	139.598	-68.6007	-152.423	141.853	-78.234	-125.903	140.693	-79.9161	-169.474	111.613	-63.9271	-139.262	113.579	-69.9159	-106.945	117.004	-73.2839	-162.578	87.9408	-45.2046	-135.814	87.9504	-49.162	-111.571	95.9573	-49.8351	-168.593	69.5814	-16.3008	-145.356	69.3053	-19.7764	-121.934	63.6999	-25.4838	-221.298	85.4521	-20.6058	-248.442	85.8841	2.97979	-241.037	119.581	-23.6134	
165	1.375	-251.504	149.407	-8.10341	-248.897	170.514	-24.9279	-238.876	186.969	-48.4205	-238.901	202.875	-60.395	-185.347	141.162	-69.1157	-155.413	142.508	-80.1259	-129.098	143.773	-84.1253	-169.336	111.641	-65.0131	-140.039	118.63	-73.6704	-111.574	127.02	-77.9945	-162.611	94.4713	-49.0495	-134.397	96.8376	-54.0486	-111.618	103.484	-54.1043	-164.692	74.2976	-22.3649	-146.652	70.9488	-19.6527	-123.593	70.9065	-28.107	-221.844	83.4069	-22.5683	-246.406	86.0428	-1.3384	-243.038	114.646	-22.7728	
166	1.38333	-254.423	149.641	-7.23322	-255.338	172.219	-24.2786	-249.679	189.014	-48.3357	-245.395	201.586	-59.8682	-190.017	142.421	-70.5763	-162.045	146.61	-84.3634	-134.62	153.392	-92.2765	-171.07	116.013	-70.5667	-144.765	123.72	-78.0079	-114.623	131.365	-83.1525	-163.999	92.4535	-50.1846	-138.634	101.674	-57.4055	-112.65	107.031	-56.5122	-161.939	75.5981	-23.1625	-142.508	77.9789	-27.9217	-121.642	72.7866	-33.0973	-221.36	83.4875	-22.6846	-245.495	86.8338	1.10521	-243.488	119.147	-23.5889	
167	1.39167	-257.425	147.573	-3.00846	-257.332	170.361	-25.0864	-256.704	187.571	-43.7596	-257.435	203.162	-57.5059	-192.987	144.56	-77.2046	-168.623	148.588	-89.86	-142.539	154.59	-98.1341	-175.338	116.905	-72.7441	-151.638	126.477	-82.2749	-119.149	134.739	-89.075	-168.481	98.7492	-55.1708	-139.83	105.156	-63.7558	-113.348	114.574	-65.3064	-164.87	80.0395	-30.2515	-143.88	79.4756	-30.7943	-121.87	75.8935	-39.7063	-219.597	84.8804	-25.9159	-241.945	84.8395	2.1948	-243.752	117.88	-23.4814	
168	1.4	-254.806	144.87	-5.13754	-261.421	168.16	-19.3653	-257.9	184.524	-44.2588	-266.785	201.287	-54.3841	-201.252	144.82	-79.2853	-176.952	149.429	-95.3973	-152.53	155.023	-106.019	-181.063	121.582	-78.1117	-157.724	129.514	-89.2123	-125.826	141.582	-99.7256	-165.642	102.718	-61.9575	-143.923	112.744	-72.3007	-121.371	121.335	-74.7656	-163.594	82.789	-34.1546	-142.298	84.3358	-41.0064	-124.58	83.4976	-50.8314	-219.521	86.4146	-24.9241	-237.356	82.1753	2.22585	-247.853	115.047	-21.9258	
169	1.40833	-259.471	145.06	-0.26554	-260.699	164.847	-21.6511	-262.814	180.789	-44.0492	-271.092	196.559	-51.8754	-209.731	143.514	-82.5195	-190.248	151.519	-100.851	-167.39	157.174	-112.904	-188.371	117.729	-81.4878	-166.573	133.002	-98.4753	-140.935	142.345	-108.759	-175.145	101.496	-66.4815	-149.199	108.801	-79.2881	-123.186	122.198	-88.0294	-165.389	85.4272	-42.8412	-144.51	85.1594	-45.0836	-125.746	84.175	-58.3013	-220.165	87.4518	-25.8652	-238.905	82.1672	2.69279	-247.369	110.974	-21.1433	
170	1.41667	-259.056	142.437	-3.239	-268.379	164.692	-17.399	-271.945	177.982	-37.4712	-280.623	194.06	-51.8163	-216.808	140.943	-87.1168	-201.666	147.191	-105.047	-179.685	153.924	-122.184	-195.259	116.492	-87.9906	-177.943	130.967	-107.112	-151.012	138.151	-118.207	-175.969	100.601	-74.5047	-156.345	111.193	-90.9756	-137.2	121.797	-98.7181	-167.001	83.4069	-44.8719	-151.166	87.3181	-55.0065	-128.042	88.1739	-71.8647	-217.478	84.1104	-25.6673	-233.364	78.776	3.70327	-248.453	108.292	-18.6978	
171	1.425	-260.048	138.706	1.31709	-266.489	158.725	-15.4961	-275.154	171.971	-38.2144	-286.042	185.168	-45.4399	-227.834	137.399	-88.6084	-213.696	141.21	-108.002	-195.742	148.892	-129.8	-205.674	114.033	-90.6144	-191.612	125.05	-109.188	-167.261	137.004	-130.989	-186.928	100.74	-78.1956	-168.781	107.996	-95.1344	-146.37	122.26	-111.72	-170.963	84.6509	-50.1149	-153.129	87.6495	-64.0346	-137.545	89.9717	-80.0618	-217.055	82.709	-30.2412	-232.017	77.6263	6.31259	-250.383	108.884	-16.1168	
172	1.43333	-259.245	135.219	3.64908	-272.584	155.48	-10.3719	-283.159	165.563	-33.4279	-298.164	180.437	-38.287	-240.704	130.343	-84.1272	-230.053	133.403	-110.486	-218.177	142.079	-133.046	-215.499	108.925	-90.4041	-205.485	121.144	-116.185	-184.244	132.237	-141.974	-193.872	100.334	-85.5975	-177.759	108.774	-105.472	-159.379	119.442	-119.914	-171.71	84.6721	-55.4787	-156.134	89.4944	-72.3938	-139.34	90.0766	-92.3839	-221.452	83.7958	-31.0582	-226.877	75.395	3.35739	-247.647	101.16	-13.5464	
